<svg width="110" height="107" viewBox="0 0 110 107" fill="none" xmlns="http://www.w3.org/2000/svg">
<path fill-rule="evenodd" clip-rule="evenodd" d="M105.38 74.77C108.25 68.28 109.82 61.15 109.82 53.66C109.82 24.11 85.17 0 54.91 0C24.65 0 0 24.11 0 53.66C0 61.11 1.57 68.23 4.4 74.68C18.95 67.14 27.61 58.84 34.21 48.3C32.37 62.28 24.38 75.22 10.32 84.93C13.28 88.93 16.79 92.51 20.69 95.6C34.2 84.21 39.95 70.13 43 55.47C44.93 70.36 41.88 86.2 29.93 101.46C35.63 104.32 41.92 106.23 48.52 107L54.76 45.62L61.99 106.86C68.32 106.04 74.29 104.18 79.77 101.46C68.01 86.25 64.68 70 66.7 55.29C69.71 69.82 75.68 84.3 88.97 95.65C92.92 92.56 96.42 88.98 99.39 84.98C85.47 75.31 77.66 62.24 75.82 48.34C82.42 58.87 90.95 67.27 105.36 74.76L105.38 74.77ZM37.13 33.96L33.49 32.05L29.81 33.91L30.53 29.92L27.57 27.11L31.66 26.57L33.5 22.98L35.3 26.61L39.39 27.2L36.47 29.97L37.14 33.96H37.13ZM58.46 18.07L54.73 16.12L50.96 17.98L51.77 14.03L48.85 10.63H52.94L54.78 7L56.58 10.63H60.67L57.71 14.03L58.47 18.07H58.46ZM79.51 33.96L75.87 32.05L72.19 33.91L72.91 29.92L69.99 27.11L74.08 26.57L75.92 22.98L77.72 26.61L81.81 27.2L78.85 30.01L79.52 33.96H79.51Z" fill="#004182"/>
</svg>
